HIERARCHY
ROOT Pelvis
{
	OFFSET 0.000000 0.000000 0.000000
	CHANNELS 6 Xposition Yposition Zposition Xrotation Yrotation Zrotation
	JOINT LeftUpLeg_virtual
	{
		OFFSET 0.000000 0.000000 0.000000
		CHANNELS 3 Xrotation Yrotation Zrotation
		JOINT LeftUpLeg
		{
			OFFSET 18.735201 -5.666702 -4.541200
			CHANNELS 3 Xrotation Yrotation Zrotation
			JOINT LeftLeg
			{
				OFFSET -0.021200 -31.938179 0.493100
				CHANNELS 3 Xrotation Yrotation Zrotation
				JOINT LeftFoot
				{
					OFFSET 0.021200 -31.938179 -4.336299
					CHANNELS 3 Xrotation Yrotation Zrotation
					JOINT LeftToeBase
					{
						OFFSET 0.943001 -26.722000 15.023500
						CHANNELS 3 Xrotation Yrotation Zrotation
						End Site
						{
							OFFSET 0 0 0
						}
					}
				}
			}
		}
	}
	JOINT RightUpLeg_virtual
	{
		OFFSET 0.000000 0.000000 0.000000
		CHANNELS 3 Xrotation Yrotation Zrotation
		JOINT RightUpLeg
		{
			OFFSET -18.735201 -5.666702 -4.541200
			CHANNELS 3 Xrotation Yrotation Zrotation
			JOINT RightLeg
			{
				OFFSET 0.018946 -31.938133 0.493100
				CHANNELS 3 Xrotation Yrotation Zrotation
				JOINT RightFoot
				{
					OFFSET -0.018946 -31.938126 -4.336299
					CHANNELS 3 Xrotation Yrotation Zrotation
					JOINT RightToeBase
					{
						OFFSET -0.943001 -26.722004 15.023500
						CHANNELS 3 Xrotation Yrotation Zrotation
						End Site
						{
							OFFSET 0 0 0
						}
					}
				}
			}
		}
	}
	JOINT Hips_virtual
	{
		OFFSET 0.000000 0.000000 0.000000
		CHANNELS 3 Xrotation Yrotation Zrotation
		JOINT Hips
		{
			OFFSET -0.000000 -0.000000 -0.000000
			CHANNELS 3 Xrotation Yrotation Zrotation
			JOINT Spine
			{
				OFFSET 0.000000 10.199997 -0.299500
				CHANNELS 3 Xrotation Yrotation Zrotation
				JOINT Spine1
				{
					OFFSET 0.000000 11.900002 -1.516600
					CHANNELS 3 Xrotation Yrotation Zrotation
					JOINT Spine2
					{
						OFFSET 0.000000 13.600006 -2.842500
						CHANNELS 3 Xrotation Yrotation Zrotation
						JOINT Neck_virtual
						{
							OFFSET 0.000000 0.000000 0.000000
							CHANNELS 3 Xrotation Yrotation Zrotation
							JOINT Neck
							{
								OFFSET 0.000000 9.624100 -2.890100
								CHANNELS 3 Xrotation Yrotation Zrotation
								JOINT Head
								{
									OFFSET 0.000000 14.068802 -1.351900
									CHANNELS 3 Xrotation Yrotation Zrotation
									End Site
									{
										OFFSET 0 0 0
									}
								}
							}
						}
						JOINT LeftShoulder_virtual
						{
							OFFSET 0.000000 0.000000 0.000000
							CHANNELS 3 Xrotation Yrotation Zrotation
							JOINT LeftShoulder
							{
								OFFSET 15.263000 10.923401 -0.547700
								CHANNELS 3 Xrotation Yrotation Zrotation
								JOINT LeftArm
								{
									OFFSET 25.438599 -2.830597 -13.032500
									CHANNELS 3 Xrotation Yrotation Zrotation
									JOINT LeftForeArm
									{
										OFFSET 29.960503 0.000000 0.000000
										CHANNELS 3 Xrotation Yrotation Zrotation
										JOINT LeftHand
										{
											OFFSET 27.849251 0.000000 0.000000
											CHANNELS 3 Xrotation Yrotation Zrotation
											End Site
											{
												OFFSET 0 0 0
											}
										}
									}
								}
							}
						}
						JOINT RightShoulder_virtual
						{
							OFFSET 0.000000 0.000000 0.000000
							CHANNELS 3 Xrotation Yrotation Zrotation
							JOINT RightShoulder
							{
								OFFSET -15.263000 10.923401 -0.547700
								CHANNELS 3 Xrotation Yrotation Zrotation
								JOINT RightArm
								{
									OFFSET -25.438599 -2.830597 -13.032500
									CHANNELS 3 Xrotation Yrotation Zrotation
									JOINT RightForeArm
									{
										OFFSET -29.960503 0.000000 0.000000
										CHANNELS 3 Xrotation Yrotation Zrotation
										JOINT RightHand
										{
											OFFSET -27.849251 0.000000 0.000000
											CHANNELS 3 Xrotation Yrotation Zrotation
											End Site
											{
												OFFSET 0 0 0
											}
										}
									}
								}
							}
						}
					}
				}
			}
		}
	}
}
MOTION
Frames: 6
Frame Time: 0.03333333
-21.381510 82.779564 -9.601274 0.000000 0.000000 0.000000 20.275191 -22.191882 16.440889 -24.669912 4.313605 30.775128 47.270206 3.739766 -10.971531 -3.679221 9.044013 -20.724461 0.000000 0.000000 0.000000 5.846871 10.902637 -4.515822 -27.422301 -0.171250 -21.525862 40.224821 -0.304361 1.883209 -13.585822 -5.061387 13.907034 0.000000 0.000000 0.000000 14.483204 13.511513 0.459596 26.221805 3.551249 1.823187 16.342419 1.625872 0.843291 8.680808 0.768562 0.509738 0.000000 0.000000 0.000000 6.642782 0.957793 -0.107905 1.217553 -1.169060 0.989717 0.000000 0.000000 0.000000 8.997939 0.600794 -0.207426 3.290393 -15.952901 -1.027353 -4.557936 -21.019672 -52.047466 6.520470 -58.363079 -1.307955 0.000000 0.000000 0.000000 10.988974 3.525601 0.478147 5.206561 17.342999 4.870888 -8.500565 25.108841 20.322808 2.950817 42.931366 -3.004702 0.000000 0.000000 0.000000 
-20.967461 82.456055 -9.551999 0.000000 0.000000 0.000000 19.923324 -21.602659 16.491120 -25.525506 4.327382 31.132907 47.913118 3.420052 -11.010465 -3.209363 8.717465 -21.005166 0.000000 0.000000 0.000000 5.811026 10.986380 -4.705027 -27.747193 -0.079125 -21.843413 40.657340 0.012250 1.982053 -13.477022 -4.825678 14.274527 0.000000 0.000000 0.000000 14.947195 13.965292 0.439412 26.975318 3.257158 2.511617 16.527497 1.789508 0.876771 8.880464 0.849594 0.495353 0.000000 0.000000 0.000000 6.702888 1.028590 -0.121761 1.242093 -1.191199 1.026530 0.000000 0.000000 0.000000 9.205006 0.687122 -0.192547 3.307757 -16.189748 -0.625609 -4.628642 -21.403677 -51.963154 6.707329 -58.804923 -1.185753 0.000000 0.000000 0.000000 11.222565 3.649413 0.502865 5.216742 17.581016 4.839603 -9.192202 25.893889 18.978312 2.758907 43.024659 -3.230719 0.000000 0.000000 0.000000 
-20.530445 82.114166 -9.485488 0.000000 0.000000 0.000000 19.515338 -20.968735 16.501206 -26.460820 4.341952 31.469499 48.558383 3.080990 -11.008732 -2.739442 8.351596 -21.237966 0.000000 0.000000 0.000000 5.804866 11.084145 -4.918572 -28.045279 0.014284 -22.178816 41.112568 0.357450 2.104949 -13.377264 -4.582416 14.696289 0.000000 0.000000 0.000000 15.414759 14.421987 0.409583 27.679333 2.938012 3.201269 16.695747 1.955518 0.898898 9.072833 0.931870 0.473324 0.000000 0.000000 0.000000 6.758791 1.097420 -0.137084 1.261576 -1.216673 1.062530 0.000000 0.000000 0.000000 9.420101 0.779482 -0.180803 3.328001 -16.417159 -0.232304 -4.605658 -21.838820 -51.906053 6.952496 -59.284013 -1.038487 0.000000 0.000000 0.000000 11.459583 3.773420 0.528243 5.219299 17.794347 4.827620 -9.874210 26.681478 17.666264 2.565221 43.122843 -3.449157 0.000000 0.000000 0.000000 
-20.077076 81.746017 -9.403568 0.000000 0.000000 0.000000 19.070563 -20.288933 16.485213 -27.452902 4.359564 31.794565 49.202934 2.735348 -10.974563 -2.270484 7.962716 -21.426303 0.000000 0.000000 0.000000 5.835570 11.208032 -5.157519 -28.308088 0.110310 -22.530262 41.592539 0.725627 2.253118 -13.287420 -4.338465 15.169194 0.000000 0.000000 0.000000 15.884425 14.887398 0.368006 28.330096 2.598764 3.885988 16.848466 2.122610 0.909557 9.258379 1.014919 0.443683 0.000000 0.000000 0.000000 6.810661 1.163604 -0.153740 1.276139 -1.245702 1.097731 0.000000 0.000000 0.000000 9.643567 0.879132 -0.172587 3.350064 -16.629163 0.149766 -4.502767 -22.311814 -51.877698 7.244890 -59.788136 -0.872905 0.000000 0.000000 0.000000 11.702572 3.897276 0.552780 5.217409 17.982020 4.827915 -10.533893 27.463199 16.377662 2.373449 43.216345 -3.663619 0.000000 0.000000 0.000000 
-19.615358 81.343628 -9.306576 0.000000 0.000000 0.000000 18.607052 -19.565070 16.458569 -28.481354 4.380649 32.118930 49.844914 2.391781 -10.918149 -1.804081 7.564101 -21.578644 0.000000 0.000000 0.000000 5.909911 11.377602 -5.422295 -28.527861 0.211982 -22.894516 42.102751 1.110744 2.426076 -13.205971 -4.099929 15.687184 0.000000 0.000000 0.000000 16.354871 15.368890 0.312773 28.927381 2.247728 4.562425 16.987736 2.290813 0.910056 9.437987 1.098884 0.407331 0.000000 0.000000 0.000000 6.859638 1.227375 -0.171753 1.286431 -1.277974 1.132105 0.000000 0.000000 0.000000 9.875828 0.987615 -0.168116 3.372888 -16.819566 0.518340 -4.340531 -22.806150 -51.879132 7.568884 -60.304218 -0.697741 0.000000 0.000000 0.000000 11.955251 4.021256 0.574788 5.215579 18.145185 4.833015 -11.160640 28.229262 15.101270 2.186635 43.294274 -3.878412 0.000000 0.000000 0.000000 
-19.154169 80.900032 -9.193307 0.000000 0.000000 0.000000 18.140096 -18.803460 16.435996 -29.529210 4.403628 32.452179 50.482789 2.054641 -10.850166 -1.343050 7.165205 -21.706568 0.000000 0.000000 0.000000 6.033999 11.616857 -5.713166 -28.697859 0.323406 -23.267608 42.650870 1.506235 2.622019 -13.129887 -3.872485 16.241842 0.000000 0.000000 0.000000 16.825187 15.874898 0.242308 29.474630 1.897198 5.230456 17.116370 2.461569 0.903666 9.612932 1.184509 0.366361 0.000000 0.000000 0.000000 6.907682 1.289816 -0.190917 1.293540 -1.312717 1.165762 0.000000 0.000000 0.000000 10.117728 1.106383 -0.167122 3.395955 -16.983428 0.872970 -4.142831 -23.305683 -51.909595 7.907652 -60.821817 -0.521129 0.000000 0.000000 0.000000 12.222068 4.146199 0.592904 5.218810 18.286858 4.837259 -11.748416 28.967625 13.826862 2.006118 43.344070 -4.097264 0.000000 0.000000 0.000000 
